# xmcd
#
# Track frame offsets: 
#        150
#        18005
#        32019
#        46022
#        58517
#        69157
#        80852
#        91250
#        105512
#        118252
#        130479
#        143702
#        154672
#        165105
#        175635
#        187497
#        200345
#        212700
#
# Disc length: 2994 seconds
#
# Revision: 4
# Processed by: cddbd v1.5.2PL0 Copyright (c) Steve Scherf et al.
# Submitted via: ExactAudioCopy v1.1
#
DISCID=eb0bb012
DTITLE=Various Artist - Juke Joint Jump - A Boogie Woogie Celebration
DTITLE=(Roots N' Blues)
DYEAR=1996
DGENRE=Jazz
TTITLE0=Memphis Slim - Panic Street (mono)
TTITLE1=Freddie Slack with The Will Bradley Trio - Down The Road A Pie
TTITLE1=ce (mono)
TTITLE2=Curley Weaver and Clarence Moore - Baby Boogie Woogie (mono)
TTITLE3=Charlie Spand - Soon This Morning No.2 (mono)
TTITLE4=The Boogie Woogie Boys (Pete Johnson, Meade Lux Lewis and Albert
TTITLE4=Ammons) - Boogie Woogie Prayer- Part 1 (mono)
TTITLE5=The Boogie Woogie Boys (Pete Johnson, Meade Lux Lewis and Albert
TTITLE5=Ammons) - Boogie Woogie Prayer- Part 2 (mono)
TTITLE6=Sir Charles Thompson - Mister Boogie (mono)
TTITLE7=Red Saunders and His Orchestra - Honky Tonk Train Blues (mono)
TTITLE8=Pete Johnson with Big Joe Turner - Roll'em Pete (mono)
TTITLE9=Champion Jack Dupree - Dupree Shake Dance (alt) (mono)
TTITLE10=Harry James and The Boogie Woogie Trio - Boo Woo (mono)
TTITLE11=Albert Ammons - Shout For Joy (alt) (mono)
TTITLE12=Calvin Frazier - Boogie Woogie (mono)
TTITLE13=Adrian Rollini Trio - Honky Tonk Train Blues (mono)
TTITLE14=Jimmy Yancey - Old Quaker Blues (mono)
TTITLE15=Willie 'Long Time' Smith - I Love You Baby Boogie (mono)
TTITLE16=Pete Johnson - Boogie Woogie (mono)
TTITLE17=Art Tatum - Tatum Pole Boogie (mono)
EXTD=
EXTT0=
EXTT1=
EXTT2=
EXTT3=
EXTT4=
EXTT5=
EXTT6=
EXTT7=
EXTT8=
EXTT9=
EXTT10=
EXTT11=
EXTT12=
EXTT13=
EXTT14=
EXTT15=
EXTT16=
EXTT17=
PLAYORDER=
